# Vectary OBJ Export units=mm
mtllib nail.mtl
o 000_nail
g nail
usemtl Nylon_b73d11d4-4b6f-4afb-9cb5-203a1c9aa71b
v -12.353 12.791 -20.509
v 15.670 12.791 -41.425
v 16.749 12.226 -40.945
v -9.259 10.196 -17.130
v -9.259 11.200 -17.130
v -10.377 12.791 -18.351
v -15.662 11.200 -11.267
v -16.780 12.791 -12.487
v -15.662 12.791 -11.267
v 18.128 12.791 -42.208
v 1.959 12.421 -23.841
v 0.014 10.919 -25.622
v 17.131 12.791 -39.828
v -6.165 12.791 -13.752
v -8.141 12.791 -15.910
v -14.545 12.791 -10.046
v -9.259 15.386 -17.130
v 16.749 13.356 -40.945
v -9.259 14.382 -17.130
v -15.662 14.382 -11.267
v 0.000 11.006 -25.800
v -1.959 12.566 -27.758
vt 0.00000 0.00000
vt 1.00000 0.00000
vt 0.00000 1.00000
vt 0.00000 0.00000
vt 1.00000 0.00000
vt 0.00000 1.00000
vt 0.00000 0.00000
vt 1.00000 0.00000
vt 0.00000 1.00000
vt 0.00000 0.00000
vt 1.00000 0.00000
vt 0.00000 1.00000
vt 0.00000 0.00000
vt 1.00000 0.00000
vt 0.00000 1.00000
vt 0.00000 0.00000
vt 1.00000 0.00000
vt 0.00000 1.00000
vt 0.00000 0.00000
vt 1.00000 0.00000
vt 0.00000 1.00000
vt 0.00000 0.00000
vt 1.00000 0.00000
vt 0.00000 1.00000
vt 0.00000 0.00000
vt 1.00000 0.00000
vt 0.00000 1.00000
vt 0.00000 0.00000
vt 1.00000 0.00000
vt 0.00000 1.00000
vt 0.00000 0.00000
vt 1.00000 0.00000
vt 0.00000 1.00000
vt 0.00000 0.00000
vt 1.00000 0.00000
vt 0.00000 1.00000
vt 0.00000 0.00000
vt 1.00000 0.00000
vt 0.00000 1.00000
vt 0.00000 0.00000
vt 1.00000 0.00000
vt 0.00000 1.00000
vt 0.00000 0.00000
vt 1.00000 0.00000
vt 0.00000 1.00000
vt 0.00000 0.00000
vt 1.00000 0.00000
vt 0.00000 1.00000
vt 0.00000 0.00000
vt 1.00000 0.00000
vt 0.00000 1.00000
vt 0.00000 0.00000
vt 1.00000 0.00000
vt 0.00000 1.00000
vt 0.00000 0.00000
vt 1.00000 0.00000
vt 0.00000 1.00000
vt 0.00000 0.00000
vt 1.00000 0.00000
vt 0.00000 1.00000
vt 0.00000 0.00000
vt 1.00000 0.00000
vt 0.00000 1.00000
vt 0.00000 0.00000
vt 1.00000 0.00000
vt 0.00000 1.00000
vt 0.00000 0.00000
vt 1.00000 0.00000
vt 0.00000 1.00000
vt 0.00000 0.00000
vt 1.00000 0.00000
vt 0.00000 1.00000
vt 0.00000 0.00000
vt 1.00000 0.00000
vt 0.00000 1.00000
vt 0.00000 0.00000
vt 1.00000 0.00000
vt 0.00000 1.00000
vt 0.00000 0.00000
vt 1.00000 0.00000
vt 0.00000 1.00000
vt 0.00000 0.00000
vt 1.00000 0.00000
vt 0.00000 1.00000
vt 0.00000 0.00000
vt 1.00000 0.00000
vt 0.00000 1.00000
vt 0.00000 0.00000
vt 1.00000 0.00000
vt 0.00000 1.00000
vt 0.00000 0.00000
vt 1.00000 0.00000
vt 0.00000 1.00000
vt 0.00000 0.00000
vt 1.00000 0.00000
vt 0.00000 1.00000
vt 0.00000 0.00000
vt 1.00000 0.00000
vt 0.00000 1.00000
vt 0.00000 0.00000
vt 1.00000 0.00000
vt 0.00000 1.00000
vt 0.00000 0.00000
vt 1.00000 0.00000
vt 0.00000 1.00000
vt 0.00000 0.00000
vt 1.00000 0.00000
vt 0.00000 1.00000
vt 0.00000 0.00000
vt 1.00000 0.00000
vt 0.00000 1.00000
vt 0.00000 0.00000
vt 1.00000 0.00000
vt 0.00000 1.00000
vt 0.00000 0.00000
vt 1.00000 0.00000
vt 0.00000 1.00000
vt 0.00000 0.00000
vt 1.00000 0.00000
vt 0.00000 1.00000
vn -0.29347 -0.87108 -0.39381
vn -0.28188 -0.87394 -0.39595
vn -0.29064 -0.87080 -0.39653
vn -0.73751 0.00000 0.67533
vn -0.73751 0.00000 0.67533
vn -0.73751 -0.00000 0.67533
vn -0.73751 -0.00000 0.67533
vn -0.73751 0.00000 0.67533
vn -0.73751 0.00000 0.67533
vn -0.46808 -0.72083 -0.51118
vn -0.46808 -0.72083 -0.51118
vn -0.46808 -0.72083 -0.51118
vn -0.46808 -0.72083 -0.51118
vn -0.46808 -0.72083 -0.51118
vn -0.46808 -0.72083 -0.51118
vn -0.73751 0.00000 0.67533
vn -0.73751 0.00000 0.67533
vn -0.73751 0.00000 0.67533
vn -0.29064 -0.87080 -0.39653
vn -0.28188 -0.87394 -0.39595
vn -0.17755 -0.81131 -0.55700
vn 0.36934 -0.86900 0.32928
vn 0.36934 -0.86900 0.32928
vn 0.36946 -0.87076 0.32447
vn 0.36946 -0.87076 0.32447
vn 0.36965 -0.87394 0.31558
vn 0.36663 -0.87099 0.32704
vn 0.36663 -0.87099 0.32704
vn 0.36934 -0.86900 0.32928
vn 0.36946 -0.87076 0.32447
vn -0.73751 0.00000 0.67533
vn -0.73751 0.00000 0.67533
vn -0.73751 -0.00000 0.67533
vn -0.73751 -0.00000 0.67533
vn -0.73751 0.00000 0.67533
vn -0.73751 0.00000 0.67533
vn 0.46808 -0.72083 0.51118
vn 0.46808 -0.72083 0.51118
vn 0.46808 -0.72083 0.51118
vn 0.46808 -0.72083 0.51118
vn 0.46808 -0.72083 0.51118
vn 0.46808 -0.72083 0.51118
vn -0.73751 0.00000 0.67533
vn -0.73751 0.00000 0.67533
vn -0.73751 0.00000 0.67533
vn 0.36946 -0.87076 0.32447
vn 0.53925 -0.81131 0.22579
vn 0.36965 -0.87394 0.31558
vn -0.29417 0.87039 -0.39482
vn -0.29556 0.86900 -0.39684
vn -0.29297 0.86995 -0.39667
vn -0.29297 0.86995 -0.39667
vn -0.28188 0.87394 -0.39594
vn -0.29417 0.87039 -0.39482
vn -0.73751 0.00000 0.67533
vn -0.73751 0.00000 0.67533
vn -0.73751 0.00000 0.67533
vn -0.73751 0.00000 0.67533
vn -0.73751 0.00000 0.67533
vn -0.73751 0.00000 0.67533
vn -0.46808 0.72083 -0.51118
vn -0.46808 0.72083 -0.51118
vn -0.46808 0.72083 -0.51118
vn -0.46808 0.72083 -0.51118
vn -0.46808 0.72083 -0.51118
vn -0.46808 0.72083 -0.51118
vn -0.73751 0.00000 0.67533
vn -0.73751 0.00000 0.67533
vn -0.73751 0.00000 0.67533
vn -0.29297 0.86995 -0.39667
vn -0.17754 0.81132 -0.55700
vn -0.28188 0.87394 -0.39594
vn 0.36745 0.87039 0.32771
vn 0.36965 0.87394 0.31557
vn 0.36940 0.86995 0.32668
vn 0.36940 0.86995 0.32668
vn 0.36934 0.86900 0.32928
vn 0.36745 0.87039 0.32771
vn -0.73751 0.00000 0.67533
vn -0.73751 0.00000 0.67533
vn -0.73751 0.00000 0.67533
vn -0.73751 0.00000 0.67533
vn -0.73751 0.00000 0.67533
vn -0.73751 0.00000 0.67533
vn 0.46808 0.72083 0.51118
vn 0.46808 0.72083 0.51118
vn 0.46808 0.72083 0.51118
vn 0.46808 0.72083 0.51118
vn 0.46808 0.72083 0.51118
vn 0.46808 0.72083 0.51118
vn -0.73751 0.00000 0.67533
vn -0.73751 0.00000 0.67533
vn -0.73751 0.00000 0.67533
vn 0.36940 0.86995 0.32668
vn 0.36965 0.87394 0.31557
vn 0.53925 0.81132 0.22579
vn -0.29064 -0.87080 -0.39653
vn -0.29556 -0.86900 -0.39684
vn -0.29556 -0.86900 -0.39684
vn -0.29347 -0.87108 -0.39381
vn -0.29064 -0.87080 -0.39653
vn -0.29556 -0.86900 -0.39684
vn -0.29064 -0.87080 -0.39653
vn -0.29556 -0.86900 -0.39684
vn -0.29556 -0.86900 -0.39684
vn -0.29347 -0.87108 -0.39381
vn -0.29556 -0.86900 -0.39684
vn -0.29556 -0.86900 -0.39684
vn -0.29556 -0.86900 -0.39684
vn -0.29556 -0.86900 -0.39684
vn -0.29347 -0.87108 -0.39381
vn 0.36663 -0.87099 0.32704
vn 0.36934 -0.86900 0.32928
vn 0.36934 -0.86900 0.32928
vn 0.36663 -0.87099 0.32704
vn 0.36934 -0.86900 0.32928
vn 0.36934 -0.86900 0.32928
vn -0.29556 -0.86900 -0.39684
vn -0.29556 -0.86900 -0.39684
vn -0.29347 -0.87108 -0.39381
f 1/1/1 2/2/2 3/3/3 
f 1/4/4 4/5/5 5/6/6 
f 5/7/7 6/8/8 1/9/9 
f 6/10/10 5/11/11 7/12/12 
f 7/13/13 8/14/14 6/15/15 
f 8/16/16 7/17/17 9/18/18 
f 3/19/19 2/20/20 10/21/21 
f 11/22/22 12/23/23 3/24/24 
f 3/25/25 13/26/26 14/27/27 
f 14/28/28 11/29/29 3/30/30 
f 14/31/31 15/32/32 5/33/33 
f 5/34/34 4/35/35 14/36/36 
f 15/37/37 16/38/38 7/39/39 
f 7/40/40 5/41/41 15/42/42 
f 16/43/43 9/44/44 7/45/45 
f 3/46/46 10/47/47 13/48/48 
f 1/49/49 17/50/50 18/51/51 
f 18/52/52 2/53/53 1/54/54 
f 1/55/55 6/56/56 19/57/57 
f 19/58/58 17/59/59 1/60/60 
f 6/61/61 8/62/62 20/63/63 
f 20/64/64 19/65/65 6/66/66 
f 8/67/67 9/68/68 20/69/69 
f 18/70/70 10/71/71 2/72/72 
f 14/73/73 13/74/74 18/75/75 
f 18/76/76 17/77/77 14/78/78 
f 14/79/79 17/80/80 19/81/81 
f 19/82/82 15/83/83 14/84/84 
f 15/85/85 19/86/86 20/87/87 
f 20/88/88 16/89/89 15/90/90 
f 16/91/91 20/92/92 9/93/93 
f 18/94/94 13/95/95 10/96/96 
f 3/97/97 12/98/98 21/99/99 
f 1/100/100 3/101/101 22/102/102 
f 3/103/103 21/104/104 22/105/105 
f 1/106/106 22/107/107 21/108/108 
f 12/109/109 4/110/110 1/111/111 
f 14/112/112 4/113/113 12/114/114 
f 14/115/115 12/116/116 11/117/117 
f 21/118/118 12/119/119 1/120/120 
